<svg width="25" height="25" viewBox="0 0 25 25" fill="none" xmlns="http://www.w3.org/2000/svg">
<g clip-path="url(#clip0_1679_52)">
<path fill-rule="evenodd" clip-rule="evenodd" d="M12.4999 0C19.4035 0 24.9998 5.59637 24.9998 12.4999C24.9998 19.4035 19.4035 24.9998 12.4999 24.9998C5.59637 24.9998 0 19.4035 0 12.4999C0 5.59637 5.59654 0 12.4999 0ZM10.693 14.2089L10.7324 16.6022C10.7313 16.739 10.7408 16.8726 10.746 17.011C10.7684 17.6145 10.7567 18.3577 10.7811 18.9989L10.8511 22.7835C11.3882 22.8691 11.9389 22.9138 12.4999 22.9138C14.8406 22.9138 17.0009 22.1416 18.7397 20.838L12.3665 14.039V5.6894C14.5894 5.6894 16.2552 7.9266 16.2552 9.86422C16.2552 11.8018 15.4199 12.8007 14.1856 13.5137L19.9966 19.7274C21.8026 17.8546 22.9138 15.3072 22.9138 12.4999C22.9138 6.74845 18.2514 2.08598 12.4999 2.08598C6.74862 2.08598 2.08598 6.74845 2.08598 12.4999C2.08598 17.1294 5.10705 21.0526 9.28507 22.4074L9.29062 21.9581C9.31686 20.6428 9.30828 19.3044 9.34075 17.9822C9.34411 17.8438 9.3352 17.7128 9.33789 17.5743C9.34041 17.4356 9.3426 17.3222 9.34495 17.1837C9.34916 16.9333 9.36867 16.6231 9.35488 16.3849L9.35824 14.3973C9.37103 13.7936 9.06841 14.0422 8.71921 13.2757C8.44772 12.6801 8.50508 12.1928 8.4933 11.6967C8.48085 11.1721 8.4854 10.6573 8.48657 10.0992C8.48775 9.5643 8.4854 9.05529 8.48758 8.51954L8.48725 6.92204C8.48926 6.75182 8.48523 5.85996 8.55335 5.73498C8.62451 5.60479 8.75605 5.61135 8.83393 5.66517C8.95235 5.74709 8.93368 5.91312 8.93973 6.03557L8.95773 7.22516C8.9611 7.7599 8.95941 8.26925 8.96009 8.80483C8.96076 9.34647 8.95874 9.86086 8.95756 10.4022L8.95723 11.9803L9.38818 12.1795C9.41796 12.0804 9.40618 10.7149 9.40652 10.4922C9.4077 9.9273 9.40803 9.3897 9.4119 8.82384C9.41594 8.25125 9.43478 7.72744 9.41846 7.13769C9.41089 6.86855 9.42872 6.57688 9.43612 6.30337C9.44336 6.0344 9.37708 5.61118 9.66186 5.63119C9.92293 5.64953 9.86674 6.22868 9.87129 6.39319C9.89467 7.24366 9.87532 8.0832 9.87751 8.89617L9.87364 11.3988C9.87314 11.6304 9.89029 12.0266 9.86809 12.2301C9.92764 12.2587 10.2925 12.2612 10.3478 12.2348C10.3271 10.675 10.3456 8.80819 10.3589 7.21137C10.3613 6.92675 10.3786 6.66788 10.3695 6.37721C10.364 6.19655 10.3547 5.63725 10.5561 5.63119C10.7017 5.62682 10.7673 5.6825 10.786 5.89932C10.8171 6.25946 10.8013 6.80043 10.8052 7.15939C10.8096 7.56865 10.7932 12.0096 10.826 12.1581C10.9283 12.1601 11.148 12.0572 11.2609 11.9783C11.2821 11.8511 11.2881 9.82637 11.2903 9.55707L11.3051 7.16107C11.3086 6.9937 11.311 6.84971 11.3164 6.68184C11.3213 6.53348 11.292 5.83658 11.3742 5.73178C11.4511 5.63405 11.6547 5.62918 11.7115 5.77787C11.762 5.90992 11.7458 6.98193 11.7475 7.2334L11.7462 10.5882C11.744 10.9051 11.7512 11.223 11.7431 11.5465C11.7177 12.5638 11.7383 13.2224 11.0577 13.909C10.9339 14.034 10.8035 14.0887 10.693 14.2083V14.2089Z" fill="white"/>
</g>
<defs>
<clipPath id="clip0_1679_52">
<rect width="25" height="25" fill="white"/>
</clipPath>
</defs>
</svg>
